<?xml version="1.0" encoding="utf-8"?>
<svg xmlns="http://www.w3.org/2000/svg">
  <defs>
    <!-- Author Icon (Pen) -->
    <symbol id="authorIcon" viewBox="0 0 24 24" fill="none" stroke="currentColor" stroke-width="2" stroke-linecap="round" stroke-linejoin="round">
      <path d="M12 19l7-7 3 3-7 7-3-3z" />
      <path d="M18 13l-1.5-7.5L2 2l3.5 14.5L13 18l5-5z" />
      <path d="M2 2l7.586 7.586" />
      <circle cx="11" cy="11" r="2" />
    </symbol>

    <!-- Illustrator Icon (Palette) -->
    <symbol id="illustratorIcon" viewBox="0 0 24 24" fill="none" stroke="currentColor" stroke-width="2" stroke-linecap="round" stroke-linejoin="round">
      <circle cx="13.5" cy="6.5" r=".5" fill="currentColor" />
      <circle cx="17.5" cy="10.5" r=".5" fill="currentColor" />
      <circle cx="8.5" cy="7.5" r=".5" fill="currentColor" />
      <circle cx="6.5" cy="12.5" r=".5" fill="currentColor" />
      <path d="M12 2C6.5 2 2 6.5 2 12s4.5 10 10 10c.926 0 1.648-.746 1.648-1.688 0-.437-.18-.835-.437-1.125-.29-.289-.438-.652-.438-1.125a1.64 1.64 0 0 1 1.668-1.668h1.996c3.051 0 5.555-2.503 5.555-5.555C21.965 6.012 17.461 2 12 2z" />
    </symbol>

    <!-- Download Icon -->
    <symbol id="downloadIcon" viewBox="0 0 24 24" fill="none" stroke="currentColor" stroke-width="2" stroke-linecap="round" stroke-linejoin="round">
      <path d="M21 15v4a2 2 0 0 1-2 2H5a2 2 0 0 1-2-2v-4" />
      <polyline points="7 10 12 15 17 10" />
      <line x1="12" y1="15" x2="12" y2="3" />
    </symbol>

    <!-- PDF Icon -->
    <symbol id="pdfIcon" viewBox="0 0 24 24" fill="none" stroke="currentColor" stroke-width="2" stroke-linecap="round" stroke-linejoin="round">
      <path d="M14 2H6a2 2 0 0 0-2 2v16a2 2 0 0 0 2 2h12a2 2 0 0 0 2-2V8z" />
      <polyline points="14 2 14 8 20 8" />
      <path d="M9 15v-2h2a1 1 0 0 1 1 1v0a1 1 0 0 1-1 1H9z" />
    </symbol>

    <!-- EPUB Icon (Book) -->
    <symbol id="epubIcon" viewBox="0 0 24 24" fill="none" stroke="currentColor" stroke-width="2" stroke-linecap="round" stroke-linejoin="round">
      <path d="M4 19.5A2.5 2.5 0 0 1 6.5 17H20" />
      <path d="M6.5 2H20v20H6.5A2.5 2.5 0 0 1 4 19.5v-15A2.5 2.5 0 0 1 6.5 2z" />
      <path d="M8 7h8" />
      <path d="M8 11h6" />
    </symbol>

    <!-- Close Icon (X) -->
    <symbol id="closeIconModal" viewBox="0 0 24 24" fill="none" stroke="currentColor" stroke-width="2" stroke-linecap="round" stroke-linejoin="round">
      <line x1="18" y1="6" x2="6" y2="18" />
      <line x1="6" y1="6" x2="18" y2="18" />
    </symbol>

    <!-- Chevron Down -->
    <symbol id="chevronDown" viewBox="0 0 24 24" fill="none" stroke="currentColor" stroke-width="2" stroke-linecap="round" stroke-linejoin="round">
      <polyline points="6 9 12 15 18 9" />
    </symbol>

    <!-- Check Icon -->
    <symbol id="checkIcon" viewBox="0 0 24 24" fill="none" stroke="currentColor" stroke-width="2" stroke-linecap="round" stroke-linejoin="round">
      <polyline points="20 6 9 17 4 12" />
    </symbol>

    <!-- X Icon (No) -->
    <symbol id="xIcon" viewBox="0 0 24 24" fill="none" stroke="currentColor" stroke-width="2" stroke-linecap="round" stroke-linejoin="round">
      <line x1="18" y1="6" x2="6" y2="18" />
      <line x1="6" y1="6" x2="18" y2="18" />
    </symbol>

    <!-- Credits Icon (Users) -->
    <symbol id="creditsIcon" viewBox="0 0 24 24" fill="none" stroke="currentColor" stroke-width="2" stroke-linecap="round" stroke-linejoin="round">
      <path d="M17 21v-2a4 4 0 0 0-4-4H5a4 4 0 0 0-4 4v2" />
      <circle cx="9" cy="7" r="4" />
      <path d="M23 21v-2a4 4 0 0 0-3-3.87" />
      <path d="M16 3.13a4 4 0 0 1 0 7.75" />
    </symbol>

    <!-- Book Icon -->
    <symbol id="bookIcon" viewBox="0 0 24 24" fill="none" stroke="currentColor" stroke-width="2" stroke-linecap="round" stroke-linejoin="round">
      <path d="M4 19.5A2.5 2.5 0 0 1 6.5 17H20" />
      <path d="M6.5 2H20v20H6.5A2.5 2.5 0 0 1 4 19.5v-15A2.5 2.5 0 0 1 6.5 2z" />
    </symbol>

    <!-- Tag Icon (Categories) -->
    <symbol id="tagIcon" viewBox="0 0 24 24" fill="none" stroke="currentColor" stroke-width="2" stroke-linecap="round" stroke-linejoin="round">
      <path d="M20.59 13.41l-7.17 7.17a2 2 0 0 1-2.83 0L2 12V2h10l8.59 8.59a2 2 0 0 1 0 2.82z" />
      <line x1="7" y1="7" x2="7.01" y2="7" />
    </symbol>

    <!-- TV Icon (Anime) -->
    <symbol id="tvIcon" viewBox="0 0 24 24" fill="none" stroke="currentColor" stroke-width="2" stroke-linecap="round" stroke-linejoin="round">
      <rect x="2" y="7" width="20" height="15" rx="2" ry="2" />
      <polyline points="17 2 12 7 7 2" />
    </symbol>

    <!-- Book Open Icon (Manga) -->
    <symbol id="mangaIcon" viewBox="0 0 24 24" fill="none" stroke="currentColor" stroke-width="2" stroke-linecap="round" stroke-linejoin="round">
      <path d="M2 3h6a4 4 0 0 1 4 4v14a3 3 0 0 0-3-3H2z" />
      <path d="M22 3h-6a4 4 0 0 0-4 4v14a3 3 0 0 1 3-3h7z" />
    </symbol>

    <!-- Users Icon (Demography) -->
    <symbol id="usersIcon" viewBox="0 0 24 24" fill="none" stroke="currentColor" stroke-width="2" stroke-linecap="round" stroke-linejoin="round">
      <path d="M17 21v-2a4 4 0 0 0-4-4H5a4 4 0 0 0-4 4v2" />
      <circle cx="9" cy="7" r="4" />
      <path d="M23 21v-2a4 4 0 0 0-3-3.87" />
      <path d="M16 3.13a4 4 0 0 1 0 7.75" />
    </symbol>

    <!-- Hash Icon (Alt Name) -->
    <symbol id="hashIcon" viewBox="0 0 24 24" fill="none" stroke="currentColor" stroke-width="2" stroke-linecap="round" stroke-linejoin="round">
      <line x1="4" y1="9" x2="20" y2="9" />
      <line x1="4" y1="15" x2="20" y2="15" />
      <line x1="10" y1="3" x2="8" y2="21" />
      <line x1="16" y1="3" x2="14" y2="21" />
    </symbol>

    <!-- Activity Icon (Status) -->
    <symbol id="statusIcon" viewBox="0 0 24 24" fill="none" stroke="currentColor" stroke-width="2" stroke-linecap="round" stroke-linejoin="round">
      <polyline points="22 12 18 12 15 21 9 3 6 12 2 12" />
    </symbol>

    <!-- Lock Icon (Upcoming/Not Available) -->
    <symbol id="lockIcon" viewBox="0 0 24 24" fill="none" stroke="currentColor" stroke-width="2" stroke-linecap="round" stroke-linejoin="round">
      <rect x="3" y="11" width="18" height="11" rx="2" ry="2" />
      <path d="M7 11V7a5 5 0 0 1 10 0v4" />
    </symbol>

    <!-- Eye Icon (Preview) -->
    <symbol id="eyeIcon" viewBox="0 0 24 24" fill="none" stroke="currentColor" stroke-width="2" stroke-linecap="round" stroke-linejoin="round">
      <path d="M1 12s4-8 11-8 11 8 11 8-4 8-11 8-11-8-11-8z" />
      <circle cx="12" cy="12" r="3" />
    </symbol>
  </defs>
</svg>
